<svg width="16" height="17" viewBox="0 0 16 17" fill="none" xmlns="http://www.w3.org/2000/svg">
<path fill-rule="evenodd" clip-rule="evenodd" d="M8.00016 1.83337C4.31862 1.83337 1.3335 4.89306 1.3335 8.67004C1.3335 11.691 3.24421 14.2507 5.89302 15.1555C6.22635 15.218 6.34838 15.0067 6.34838 14.8251C6.34838 14.6614 6.34242 14.2328 6.33945 13.6614C4.48528 14.0751 4.09242 12.7447 4.09242 12.7447C3.78885 11.9559 3.35135 11.7446 3.35135 11.7446C2.74719 11.319 3.396 11.3279 3.396 11.3279C4.06564 11.3755 4.41683 12.0333 4.41683 12.0333C5.01207 13.078 5.97635 12.7774 6.35731 12.6018C6.41683 12.1613 6.58945 11.8577 6.77992 11.6881C5.30076 11.5154 3.74421 10.9291 3.74421 8.30991C3.74421 7.56284 4.00314 6.95269 4.42873 6.47648C4.36028 6.30385 4.13111 5.60738 4.49421 4.66686C4.49421 4.66686 5.05373 4.48232 6.32754 5.3663C6.86028 5.2145 7.42873 5.1401 7.99719 5.13712C8.56266 5.1401 9.13409 5.2145 9.66683 5.3663C10.9406 4.48232 11.4972 4.66686 11.4972 4.66686C11.8603 5.60738 11.6311 6.30385 11.5627 6.47648C11.9883 6.95567 12.2472 7.56582 12.2472 8.30991C12.2472 10.935 10.6877 11.5125 9.20254 11.6821C9.44064 11.8934 9.65493 12.3101 9.65493 12.9471C9.65493 13.8608 9.646 14.5989 9.646 14.8222C9.646 15.0037 9.76504 15.218 10.1043 15.1496C12.7591 14.2477 14.6668 11.6881 14.6668 8.67004C14.6668 4.89306 11.6817 1.83337 8.00016 1.83337Z" fill="currentColor"/>
</svg>
