<svg width="16" height="17" viewBox="0 0 16 17" fill="none" xmlns="http://www.w3.org/2000/svg">
<path d="M2.25009 7.66592C5.82923 5.97244 8.21587 4.856 9.41004 4.31659C12.8196 2.77646 13.5281 2.50893 13.9899 2.50009C14.0914 2.49815 14.3185 2.52549 14.4656 2.65511C14.5898 2.76457 14.624 2.91242 14.6404 3.0162C14.6567 3.11997 14.6771 3.35637 14.6609 3.54108C14.4761 5.6494 13.6767 10.7657 13.2699 13.1271C13.0978 14.1262 12.7589 14.4613 12.4309 14.4941C11.7179 14.5653 11.1765 13.9823 10.4859 13.4908C9.40537 12.7215 8.79491 12.2426 7.74602 11.492C6.53385 10.6245 7.31965 10.1477 8.01046 9.36849C8.19125 9.16457 11.3326 6.06151 11.3934 5.78001C11.401 5.7448 11.4081 5.61357 11.3363 5.54428C11.2645 5.47498 11.1586 5.49868 11.0821 5.51753C10.9737 5.54424 9.2475 6.78334 5.90341 9.23483C5.41342 9.60023 4.9696 9.77826 4.57196 9.76893C4.13359 9.75865 3.29035 9.49976 2.66348 9.27846C1.8946 9.00704 1.28351 8.86353 1.33673 8.40257C1.36444 8.16247 1.6689 7.91692 2.25009 7.66592Z" fill="currentColor"/>
</svg>
